# xmcd CD database file
#
# Track frame offsets:
#	150
#	20087
#	40150
#	64225
#	83802
#
# Disc length: 1416 seconds
#
# Revision: 0
# Processed by: cddbd v1.5.1PL0 Copyright (c) Steve Scherf et al.
# Submitted via: CDex 1.51
#
DISCID=3b058605
DTITLE=矢野真紀 - あいいろ
DYEAR=2003
DGENRE=JPop
TTITLE0=ボクの空
TTITLE1=子守歌
TTITLE2=ぎゅっとして
TTITLE3=けむりのように
TTITLE4=せんたくもの
EXTD=YEAR: 2003
EXTT0=
EXTT1=
EXTT2=
EXTT3=
EXTT4=
PLAYORDER=
